<?xml version="1.0" encoding="utf-8"?>
<!-- Generator: Adobe Illustrator 18.1.1, SVG Export Plug-In . SVG Version: 6.00 Build 0)  -->
<svg version="1.1" id="Layer_1" xmlns="http://www.w3.org/2000/svg" xmlns:xlink="http://www.w3.org/1999/xlink" x="0px" y="0px"
	 viewBox="0 0 60 60" enable-background="new 0 0 60 60" xml:space="preserve">
<path fill="#97FFFF" d="M48.3,1.8H11.8c-5.5,0-10,4.5-10,10v36.5c0,5.5,4.5,10,10,10h36.5c5.5,0,10-4.5,10-10V11.8
	C58.3,6.2,53.8,1.8,48.3,1.8z M40.8,30.6c0,0.5-0.2,0.4-0.6,0.4c-2.5,0-5.1,0-7.6,0c-0.5,0-0.5,0.1-0.5,0.6c0,3.7,0,7.3,0,11
	c0,3.7,0,7.3,0,11c0,0.5-0.1,0.6-0.6,0.6c-2.6,0-5.2,0-7.8,0c-0.5,0-0.6-0.2-0.6-0.6c0-7.3,0-14.5,0-21.8c0-0.6-0.1-0.8-0.7-0.8
	c-1.6,0.1-3.3,0-4.9,0c-0.4,0-0.5-0.1-0.5-0.5c0-2.5,0-5,0-7.5c0-0.4,0.1-0.5,0.5-0.5c1.7,0,3.4,0,5.1,0c0.5,0,0.6-0.1,0.6-0.6
	c0-2.3-0.1-4.7,0-7c0.2-5.4,3.7-9.2,9-10c2.8-0.4,5.6-0.2,8.4,0c0.4,0,0.5,0.2,0.4,0.6c-0.1,2.3-0.1,4.6-0.2,6.9
	c0,0.4-0.1,0.5-0.5,0.4c-1.5,0-3.1,0-4.6,0c-0.1,0-0.3,0-0.4,0c-2.4,0-3.3,0.9-3.3,3.3c0,1.9,0,3.9,0,5.8c0,0.5,0.1,0.6,0.6,0.6
	c2.6,0,5.2,0,7.8,0c0.5,0,0.7,0.1,0.6,0.6C41,25.7,40.9,28.2,40.8,30.6z"/>
</svg>
