<?xml version="1.0" encoding="utf-8"?>
<!-- Generator: Adobe Illustrator 18.1.1, SVG Export Plug-In . SVG Version: 6.00 Build 0)  -->
<svg version="1.1" id="Layer_1" xmlns="http://www.w3.org/2000/svg" xmlns:xlink="http://www.w3.org/1999/xlink" x="0px" y="0px"
	 viewBox="0 0 60 60" enable-background="new 0 0 60 60" xml:space="preserve">
<g>
	<path fill="#97FFFF" d="M46.8,25.8c-1,0-2,0-3,0c-0.4,0-0.5,0.1-0.4,0.5c0.6,2,0.7,4.1,0.3,6.1c-1.1,5.5-4.3,9.2-9.6,10.9
		c-5.2,1.6-10,0.4-13.9-3.4c-3.8-3.7-4.9-8.3-3.7-13.5c0.1-0.5,0.1-0.6-0.4-0.6c-0.9,0-1.7,0-2.6,0c-0.5,0-0.6,0.1-0.6,0.6
		c0,6.2,0,12.4,0,18.6c0,1.6,0.9,2.5,2.5,2.5c4.9,0,9.8,0,14.7,0s9.9,0,14.8,0c1.4,0,2.3-0.9,2.3-2.3c0-6.3,0-12.7,0-19
		C47.3,25.9,47.2,25.8,46.8,25.8z"/>
	<path fill="#97FFFF" d="M30,39.2c5.1,0,9.2-4.1,9.2-9.1s-4.1-9.2-9.1-9.2c-5.1,0-9.2,4.1-9.2,9.1C20.8,35,24.9,39.1,30,39.2z"/>
	<path fill="#97FFFF" d="M41.5,20.8c1.2,0,2.3,0,3.5,0c1.3,0,2.3-1,2.3-2.3c0-1.2,0-2.5,0-3.7c0-1.3-1-2.2-2.2-2.3c-0.7,0-1.3,0-2,0
		l0,0c-0.6,0-1.1,0-1.7,0c-1.3,0-2.1,0.9-2.1,2.1c0,1.3,0,2.5,0,3.8C39.2,19.8,40.2,20.8,41.5,20.8z"/>
	<path fill="#97FFFF" d="M48.3,1.8H11.8c-5.5,0-10,4.5-10,10v36.5c0,5.5,4.5,10,10,10h36.5c5.5,0,10-4.5,10-10V11.8
		C58.3,6.2,53.8,1.8,48.3,1.8z M52.4,46.7c0,3.5-2.4,5.9-5.9,5.9c-5.5,0-11,0-16.6,0c-5.5,0-11,0-16.4,0c-3.4,0-5.9-2.4-5.9-5.9
		c0-11.1,0-22.2,0-33.3c0-3.5,2.4-5.9,5.9-5.9c11,0,22,0,33,0c3.4,0,5.9,2.4,5.9,5.9C52.4,24.4,52.4,35.6,52.4,46.7z"/>
</g>
</svg>
